<svg xmlns="http://www.w3.org/2000/svg" version="1.1" xmlns:xlink="http://www.w3.org/1999/xlink" width="512" height="512" x="0" y="0" viewBox="0 0 512 512" style="enable-background:new 0 0 512 512" xml:space="preserve" class=""><g><path d="M40 256c0-119.293 96.707-216 216-216 100.247 0 184.533 68.3 208.9 160.894l7.858-1.593C447.644 103.045 360.122 32 256 32 132.288 32 32 132.288 32 256c0 6.459.289 12.849.825 19.169l7.983-.542A218.54 218.54 0 0 1 40 256zM472 256c0 119.293-96.707 216-216 216-106.72 0-195.351-77.4-212.851-179.123l-7.933 1.072C53.245 399.585 145.225 480 256 480c123.712 0 224-100.288 224-224zM471.194 237.2a217.204 217.204 0 0 0-2.345-18.177l7.882-1.36a224.779 224.779 0 0 1 2.434 18.85z" fill="#edd23f" opacity="1" data-original="#000000" class=""></path><path d="M256 452.5c-108.351 0-196.5-88.149-196.5-196.5a196.815 196.815 0 0 1 23.4-93.067l7.042 3.794A188.8 188.8 0 0 0 67.5 256c0 103.939 84.561 188.5 188.5 188.5S444.5 359.939 444.5 256 359.939 67.5 256 67.5A188.535 188.535 0 0 0 100.1 150l-6.611-4.5A196.526 196.526 0 0 1 256 59.5c108.351 0 196.5 88.149 196.5 196.5S364.351 452.5 256 452.5z" fill="#edd23f" opacity="1" data-original="#000000" class=""></path><path d="m278.613 342.8-70.352-40.624-42.621.031v-92.426l42.621.03 70.352-40.611v64.263a25.558 25.558 0 0 1 0 45.067zM210.4 294.171l60.211 34.769V273.3l2.5-1.012a17.562 17.562 0 0 0 0-32.581l-2.5-1.012v-55.637L210.4 217.813l-36.762-.026V294.2zM346.36 243.625l-5.657-5.657-12.374 12.375-12.374-12.375-5.657 5.657L322.672 256l-12.374 12.375 5.657 5.656 12.374-12.375 12.374 12.375 5.657-5.656L333.986 256z" fill="#edd23f" opacity="1" data-original="#000000" class=""></path></g></svg>